<svg width="94" height="94" viewBox="0 0 94 94" fill="none" xmlns="http://www.w3.org/2000/svg">
<g clip-path="url(#clip0_5_60)">
<path d="M29.7393 70.5H50.1549C60.7534 70.5 67.1219 65.1656 67.1219 56.4235C67.1219 49.9493 62.651 45.167 55.9359 44.4738V43.8863C60.8239 43.0638 64.6426 38.4225 64.6426 33.2173C64.6426 25.5798 59.032 20.821 49.7084 20.821H29.7393V70.5ZM37.4531 41.8594V27.3658H47.9106C53.627 27.3658 56.9699 30.0507 56.9699 34.6332C56.9699 39.3449 53.4214 41.8594 46.6064 41.8594H37.4531ZM37.4531 63.9612V47.9518H48.1574C55.4189 47.9518 59.2435 50.6719 59.2435 55.8713C59.2435 61.1353 55.5599 63.9612 48.6039 63.9612H37.4531Z" fill="#F2F2F2"/>
<path d="M0 23.5C0 17.2674 2.47589 11.2901 6.88299 6.88299C11.2901 2.47589 17.2674 0 23.5 0L70.5 0C76.7326 0 82.7099 2.47589 87.117 6.88299C91.5241 11.2901 94 17.2674 94 23.5V70.5C94 76.7326 91.5241 82.7099 87.117 87.117C82.7099 91.5241 76.7326 94 70.5 94H23.5C17.2674 94 11.2901 91.5241 6.88299 87.117C2.47589 82.7099 0 76.7326 0 70.5V23.5ZM23.5 5.875C18.8256 5.875 14.3426 7.73191 11.0372 11.0372C7.73191 14.3426 5.875 18.8256 5.875 23.5V70.5C5.875 75.1744 7.73191 79.6574 11.0372 82.9628C14.3426 86.2681 18.8256 88.125 23.5 88.125H70.5C75.1744 88.125 79.6574 86.2681 82.9628 82.9628C86.2681 79.6574 88.125 75.1744 88.125 70.5V23.5C88.125 18.8256 86.2681 14.3426 82.9628 11.0372C79.6574 7.73191 75.1744 5.875 70.5 5.875H23.5Z" fill="#F2F2F2"/>
</g>
<defs>
<clipPath id="clip0_5_60">
<rect width="94" height="94" fill="white"/>
</clipPath>
</defs>
</svg>
