<svg width="42" height="42" viewBox="0 0 42 42" fill="none" xmlns="http://www.w3.org/2000/svg">
<path fill-rule="evenodd" clip-rule="evenodd" d="M11.8253 10.8889L20.9764 17.564L30.3249 10.659C31.7531 9.53117 33.5842 9.33625 35.0805 10.089C36.6018 10.8543 37.625 12.5149 37.625 14.7824V29.3333C37.625 30.1584 37.5212 31.3405 36.8924 32.3368C36.2173 33.4064 35.0332 34.1151 33.2138 34.1151H29.5557C29.0726 34.1151 28.6807 33.7233 28.6807 33.2401V23.1015L21.5017 28.4408C21.1913 28.6718 20.7659 28.6712 20.4557 28.4395L13.3192 23.1064V29.2577C13.3192 29.7408 12.9275 30.1327 12.4442 30.1327C11.961 30.1327 11.5692 29.7408 11.5692 29.2577V21.3603C11.5692 21.029 11.7562 20.7262 12.0522 20.578C12.3483 20.4296 12.7027 20.4611 12.968 20.6594L20.9809 26.6472L29.0335 20.6582C29.299 20.4608 29.6531 20.4298 29.9486 20.5784C30.2442 20.7269 30.4307 21.0295 30.4307 21.3603V32.3651H33.2138C34.5159 32.3651 35.1001 31.8977 35.4126 31.4026C35.7714 30.8341 35.875 30.0628 35.875 29.3333V14.7824C35.875 13.0635 35.1302 12.073 34.294 11.6523C33.4374 11.2213 32.3281 11.3021 31.4009 12.039C31.3929 12.0454 31.3847 12.0517 31.3764 12.0579L21.4995 19.3532C21.192 19.5803 20.7727 19.5816 20.464 19.3563L10.7832 12.2948C9.91543 11.648 8.63193 11.2576 7.64713 11.4069C7.17761 11.4781 6.82208 11.6627 6.57881 11.9506C6.3354 12.2386 6.125 12.7241 6.125 13.5466V30.011C6.125 31.1681 6.53847 31.7182 6.93392 32.002C7.37753 32.3205 7.9374 32.401 8.30198 32.3685C8.32781 32.3662 8.35375 32.3651 8.37968 32.3651H10.6942C11.1775 32.3651 11.5692 32.7568 11.5692 33.2401C11.5692 33.7233 11.1775 34.1151 10.6942 34.1151H8.41552C7.73785 34.1666 6.75626 34.0289 5.91336 33.4237C5.00476 32.7713 4.375 31.6602 4.375 30.011V13.5466C4.375 12.4224 4.66758 11.501 5.24216 10.821C5.81688 10.1409 6.59435 9.7965 7.38483 9.67666C8.91837 9.44417 10.6608 10.0224 11.8253 10.8889Z" fill="#D9D9D9"/>
</svg>
