<svg width="38" height="38" viewBox="0 0 38 38" fill="none" xmlns="http://www.w3.org/2000/svg">
<path d="M19 3.58472C21.0781 3.58472 23.0969 4.00034 24.9969 4.82417C26.8375 5.61831 28.4852 6.76128 29.9027 8.21597C31.3203 9.67065 32.441 11.3703 33.2203 13.2554C34.0293 15.2148 34.4375 17.2929 34.4375 19.4378C34.4375 22.8371 33.4059 26.0804 31.4539 28.8117C30.5187 30.1253 29.3906 31.2757 28.1141 32.2406C26.9414 33.1238 25.6648 33.8214 24.3141 34.3335C24.3141 34.1925 24.3141 34.0292 24.3141 33.8511C24.3215 32.9679 24.3289 31.6394 24.3289 30.1105C24.3289 29.1902 24.1805 28.4406 23.9652 27.8468C26.7262 27.2308 30.7934 25.3457 30.7934 18.5398C30.7934 16.714 30.2664 15.0886 29.2199 13.7082C29.45 12.7507 29.6281 11.066 28.8414 9.03237L28.641 8.50542L28.1066 8.32729C27.9953 8.29018 27.7504 8.23081 27.3645 8.23081C26.5109 8.23081 25.0711 8.52026 22.9484 9.90815C21.6867 9.59644 20.3656 9.41831 19.0074 9.41831H19H18.9926C17.6344 9.41831 16.3059 9.59644 15.0516 9.90815C12.9289 8.52026 11.4891 8.22339 10.6355 8.22339C10.2496 8.22339 10.0047 8.29018 9.89336 8.32729L9.35898 8.50542L9.15859 9.03237C8.37188 11.0734 8.55 12.7582 8.78008 13.7082C7.73359 15.096 7.20664 16.7214 7.20664 18.5398C7.20664 22.221 8.39414 24.4699 9.92305 25.8503C9.32187 25.3605 8.54258 24.9523 7.60742 24.8855H7.57031H7.5332H7.51094C6.53867 24.8855 5.85586 25.2863 5.64062 25.9765C5.2918 27.075 6.36797 27.832 6.72422 28.0843L6.76133 28.1289L6.87266 28.1734C6.99141 28.2476 7.62227 28.6929 8.12695 29.9917C8.27539 30.4519 8.59453 31.0679 9.13633 31.6394C8.16406 30.8082 7.2957 29.8582 6.54609 28.8117C4.59414 26.0878 3.5625 22.8445 3.5625 19.4453C3.5625 17.3003 3.9707 15.2222 4.77969 13.2628C5.55898 11.3703 6.67227 9.67808 8.09727 8.22339C9.51484 6.7687 11.1699 5.62573 13.0031 4.83159C14.9031 4.00776 16.9219 3.58472 19 3.58472ZM10.1457 26.0507C11.3926 27.0972 12.8398 27.6019 14.0273 27.8691C13.968 28.0324 13.916 28.2031 13.8715 28.3812C13.6191 28.4554 13.3148 28.5148 13.0031 28.5148C12.1941 28.5148 11.593 28.114 11.1031 27.2605C10.925 26.9191 10.5984 26.4664 10.1457 26.0507ZM10.4203 32.6265C11.1477 33.0199 12.0605 33.2796 13.1813 33.2796C13.3445 33.2796 13.5078 33.2722 13.6785 33.2648C13.6785 33.4726 13.6785 33.673 13.6859 33.8511C13.6859 34.0292 13.6859 34.1925 13.6934 34.3335C12.5355 33.9031 11.4445 33.3316 10.4203 32.6265ZM19 2.39722C9.81914 2.39722 2.375 10.0343 2.375 19.4453C2.375 26.9785 7.13984 33.3613 13.7453 35.6175C13.8492 35.6398 13.9383 35.6472 14.0273 35.6472C14.6434 35.6472 14.8809 35.1945 14.8809 34.8011C14.8809 34.3929 14.866 33.3242 14.8586 31.8992C14.2352 32.0402 13.6785 32.0996 13.1813 32.0996C9.98242 32.0996 9.25508 29.6132 9.25508 29.6132C8.49805 27.6464 7.40703 27.1046 7.40703 27.1046C5.95977 26.0878 7.39961 26.0507 7.51094 26.0507C7.51836 26.0507 7.51836 26.0507 7.51836 26.0507C9.18828 26.1992 10.0641 27.8246 10.0641 27.8246C10.8953 29.2792 12.0086 29.6949 13.0031 29.6949C13.7824 29.6949 14.4875 29.4425 14.9031 29.2496C15.0516 28.1511 15.482 27.4015 15.957 26.971C12.2684 26.5406 8.38672 25.0785 8.38672 18.5472C8.38672 16.6843 9.03242 15.1628 10.0938 13.9753C9.92305 13.5449 9.35156 11.8082 10.257 9.46284C10.257 9.46284 10.3758 9.42573 10.6281 9.42573C11.2293 9.42573 12.5875 9.65581 14.8289 11.2144C16.1574 10.8359 17.575 10.6503 18.9926 10.6429C20.4027 10.6503 21.8277 10.8359 23.1562 11.2144C25.3977 9.65581 26.7559 9.42573 27.357 9.42573C27.6094 9.42573 27.7281 9.46284 27.7281 9.46284C28.6336 11.8082 28.0621 13.5449 27.8914 13.9753C28.9527 15.1703 29.5984 16.6917 29.5984 18.5472C29.5984 25.0933 25.7094 26.5332 22.0059 26.9562C22.5996 27.4832 23.134 28.5222 23.134 30.1105C23.134 32.389 23.1117 34.2296 23.1117 34.7863C23.1117 35.1871 23.3418 35.6398 23.9578 35.6398C24.0469 35.6398 24.1508 35.6324 24.2547 35.6101C30.8676 33.3613 35.625 26.971 35.625 19.4453C35.625 10.0343 28.1809 2.39722 19 2.39722Z" fill="#D9D9D9"/>
</svg>
