<svg width="36" height="36" viewBox="0 0 36 36" fill="none" xmlns="http://www.w3.org/2000/svg">
<path d="M5.60588 9.98444H5.5575C2.98913 9.98444 1.125 8.28119 1.125 5.93444C1.125 3.58431 3.0285 1.87769 5.65087 1.87769C8.22937 1.87769 10.0699 3.53819 10.125 5.91531C10.125 8.27894 8.22487 9.98444 5.60588 9.98444ZM5.65087 3.00269C3.64837 3.00269 2.25 4.20869 2.25 5.93444C2.25 7.65681 3.61013 8.86056 5.5575 8.86056H5.60588C7.605 8.85944 9 7.65456 9 5.92881C8.95837 4.15581 7.64437 3.00269 5.65087 3.00269Z" fill="#D9D9D9"/>
<path d="M8.4375 32.625H2.8125C2.502 32.625 2.25 32.373 2.25 32.0625V11.8125C2.25 11.502 2.502 11.25 2.8125 11.25H8.4375C8.748 11.25 9 11.502 9 11.8125V32.0625C9 32.373 8.748 32.625 8.4375 32.625ZM3.375 31.5H7.875V12.375H3.375V31.5Z" fill="#D9D9D9"/>
<path d="M34.3125 32.625H27.5625C27.252 32.625 27 32.373 27 32.0625V21.375C27 19.5142 25.4858 18 23.625 18C21.7642 18 20.25 19.5142 20.25 21.375V32.0625C20.25 32.373 19.998 32.625 19.6875 32.625H12.9375C12.627 32.625 12.375 32.373 12.375 32.0625V11.8125C12.375 11.502 12.627 11.25 12.9375 11.25H19.6875C19.998 11.25 20.25 11.502 20.25 11.8125V15.2032C20.25 15.5138 19.998 15.7657 19.6875 15.7657C19.377 15.7657 19.125 15.5138 19.125 15.2032V12.375H13.5V31.5H19.125V21.375C19.125 18.8932 21.1432 16.875 23.625 16.875C26.1068 16.875 28.125 18.8932 28.125 21.375V31.5H33.75V19.6875C33.75 15.6555 30.4695 12.375 26.4375 12.375C24.8805 12.375 23.3752 12.8318 22.0826 13.6946C21.825 13.8656 21.4751 13.7981 21.303 13.5394C21.1309 13.2806 21.1995 12.9319 21.4594 12.7598C22.9365 11.772 24.6578 11.25 26.4375 11.25C31.0905 11.25 34.875 15.0345 34.875 19.6875V32.0625C34.875 32.373 34.623 32.625 34.3125 32.625Z" fill="#D9D9D9"/>
</svg>
