<svg width="86" height="98" viewBox="0 0 86 98" fill="none" xmlns="http://www.w3.org/2000/svg">
<path d="M0 6.125V91.875H86V6.125H0ZM46.8009 73.0023C46.8009 81.3477 41.8866 85.1566 34.7263 85.1566C28.2571 85.1566 24.5138 81.8262 22.5942 77.7875L29.1786 73.8254C30.4455 76.0648 31.5973 77.9598 34.3808 77.9598C37.0299 77.9598 38.7192 76.9262 38.7192 72.8875V45.4973H46.8009V73.0023ZM65.9205 85.1566C58.4147 85.1566 53.558 81.5965 51.1969 76.9262L57.7812 73.1363C59.5089 75.95 61.7741 78.0363 65.7478 78.0363C69.0879 78.0363 71.2379 76.3711 71.2379 74.0551C71.2379 71.2988 69.0496 70.3227 65.3446 68.6957L63.329 67.8344C57.4933 65.3652 53.6348 62.2453 53.6348 55.6801C53.6348 49.6316 58.2612 45.0379 65.4598 45.0379C70.6045 45.0379 74.2902 46.818 76.9393 51.4883L70.6429 55.5078C69.2607 53.0387 67.7634 52.0625 65.4406 52.0625C63.0795 52.0625 61.5821 53.5555 61.5821 55.5078C61.5821 57.9195 63.0795 58.8957 66.554 60.4078L68.5696 61.2691C75.442 64.1977 79.3004 67.2027 79.3004 73.9402C79.3004 81.1754 73.5799 85.1566 65.9205 85.1566Z" fill="#F2F2F2"/>
</svg>
