<svg width="93" height="93" viewBox="0 0 93 93" fill="none" xmlns="http://www.w3.org/2000/svg">
<g clip-path="url(#clip0_5_63)">
<path d="M27.9 27.9L30.4131 26.0849C29.6258 24.9949 28.2256 24.5367 26.9463 24.9503C25.6668 25.3641 24.8 26.5554 24.8 27.9H27.9ZM46.5 86.8C24.2429 86.8 6.2 68.7574 6.2 46.5H0C0 72.181 20.8187 93 46.5 93V86.8ZM86.8 46.5C86.8 68.7574 68.7574 86.8 46.5 86.8V93C72.181 93 93 72.181 93 46.5H86.8ZM46.5 6.2C68.7574 6.2 86.8 24.2429 86.8 46.5H93C93 20.8187 72.181 0 46.5 0V6.2ZM46.5 0C20.8187 0 0 20.8187 0 46.5H6.2C6.2 24.2429 24.2429 6.2 46.5 6.2V0ZM31 74.4V27.9H24.8V74.4H31ZM25.3869 29.715L65.6871 85.5147L70.7129 81.8853L30.4131 26.0849L25.3869 29.715ZM62 24.8V62H68.2V24.8H62Z" fill="#F2F2F2"/>
</g>
<defs>
<clipPath id="clip0_5_63">
<rect width="93" height="93" fill="white"/>
</clipPath>
</defs>
</svg>
