<svg width="94" height="106" viewBox="0 0 94 106" fill="none" xmlns="http://www.w3.org/2000/svg">
<g clip-path="url(#clip0_5_58)">
<path d="M47 105.172C45.5942 105.172 44.1674 104.799 42.9295 104.095L29.9835 96.5387C28.0531 95.4621 28.9973 95.0895 29.6268 94.8824C32.2076 93.9922 32.7321 93.8059 35.4808 92.2532C35.7746 92.0875 36.1522 92.1496 36.446 92.336L46.3915 98.1535C46.7482 98.3606 47.2518 98.3606 47.5875 98.1535L86.3415 76.084C86.6982 75.877 86.929 75.4629 86.929 75.0489V30.9098C86.929 30.475 86.6982 30.0817 86.3205 29.8539L47.5875 7.8051C47.2308 7.59807 46.7482 7.59807 46.3915 7.8051L7.67946 29.8746C7.30178 30.0817 7.07098 30.4957 7.07098 30.9305V75.0489C7.07098 75.4629 7.30178 75.877 7.67946 76.0633L18.2964 82.1086C24.0665 84.9449 27.5915 81.6117 27.5915 78.2371V34.6778C27.5915 34.0567 28.0951 33.5805 28.7246 33.5805H33.6344C34.2429 33.5805 34.7674 34.0567 34.7674 34.6778V78.2578C34.7674 85.8352 30.571 90.1828 23.2902 90.1828C21.0451 90.1828 19.2826 90.1828 14.3728 87.7813L4.21741 82.0051C1.69955 80.5766 0.146873 77.9059 0.146873 75.0282V30.9098C0.146873 28.0528 1.69955 25.3614 4.21741 23.9328L42.9295 1.86331C45.3844 0.496899 48.6366 0.496899 51.0705 1.86331L89.8246 23.9535C92.3424 25.3821 93.8951 28.0528 93.8951 30.9305V75.0489C93.8951 77.9059 92.3424 80.5766 89.8246 82.0258L51.0705 104.095C49.8326 104.799 48.4268 105.172 47 105.172ZM78.2844 61.6746C78.2844 53.4141 72.6192 51.2196 60.7223 49.6668C48.6786 48.0934 47.4616 47.286 47.4616 44.5117C47.4616 42.2137 48.4897 39.1496 57.4071 39.1496C65.3594 39.1496 68.2969 40.8473 69.5138 46.1473C69.6187 46.6442 70.0804 47.0168 70.6049 47.0168H75.6406C75.9554 47.0168 76.2491 46.8926 76.4589 46.6649C76.6687 46.4371 76.7737 46.1266 76.7527 45.816C75.9763 36.686 69.8286 32.4418 57.4071 32.4418C46.3496 32.4418 39.7612 37.0379 39.7612 44.7602C39.7612 53.1242 46.3286 55.443 56.9245 56.4781C69.6187 57.6996 70.6049 59.5422 70.6049 62.0059C70.6049 66.2707 67.1219 68.0926 58.9598 68.0926C48.6996 68.0926 46.4545 65.5461 45.6991 60.5153C45.6152 59.977 45.1536 59.5836 44.5871 59.5836H39.5723C38.9429 59.5836 38.4603 60.0805 38.4603 60.6809C38.4603 67.1196 42.0062 74.8004 58.9808 74.8004C71.2344 74.7797 78.2844 69.9973 78.2844 61.6746Z" fill="#F2F2F2"/>
</g>
<defs>
<clipPath id="clip0_5_58">
<rect width="94" height="106" fill="white"/>
</clipPath>
</defs>
</svg>
