<svg width="96" height="96" viewBox="0 0 96 96" fill="none" xmlns="http://www.w3.org/2000/svg">
<path d="M48 39.4439C46.8764 39.4439 45.7638 39.6653 44.7258 40.0952C43.6877 40.5252 42.7445 41.1554 41.95 41.9499C41.1555 42.7444 40.5253 43.6876 40.0953 44.7257C39.6653 45.7638 39.444 46.8764 39.444 47.9999C39.444 49.1235 39.6653 50.2361 40.0953 51.2742C40.5253 52.3122 41.1555 53.2555 41.95 54.0499C42.7445 54.8444 43.6877 55.4747 44.7258 55.9047C45.7638 56.3346 46.8764 56.5559 48 56.5559C49.1236 56.5559 50.2362 56.3346 51.2742 55.9047C52.3123 55.4747 53.2555 54.8444 54.05 54.0499C54.8445 53.2555 55.4747 52.3122 55.9047 51.2742C56.3347 50.2361 56.556 49.1235 56.556 47.9999C56.556 46.8764 56.3347 45.7638 55.9047 44.7257C55.4747 43.6876 54.8445 42.7444 54.05 41.9499C53.2555 41.1554 52.3123 40.5252 51.2742 40.0952C50.2362 39.6653 49.1236 39.4439 48 39.4439ZM24.032 65.0199L22.144 64.5399C8.072 60.9839 0 54.9479 0 47.9839C0 41.0199 8.072 34.9839 22.144 31.4279L24.032 30.9519L24.564 32.8239C25.9895 37.7348 27.8129 42.5213 30.016 47.1359L30.42 47.9879L30.016 48.8399C27.8092 53.453 25.9857 58.2398 24.564 63.1519L24.032 65.0199ZM21.268 35.7999C10.572 38.8039 4.008 43.3999 4.008 47.9839C4.008 52.5639 10.572 57.1599 21.268 60.1679C22.5761 56.0077 24.1555 51.9376 25.996 47.9839C24.1534 44.0312 22.5739 39.961 21.268 35.7999ZM71.968 65.0199L71.436 63.1439C70.0119 58.2334 68.1871 53.4479 65.98 48.8359L65.576 47.9839L65.98 47.1319C68.1863 42.5182 70.011 37.7315 71.436 32.8199L71.968 30.9479L73.86 31.4239C87.928 34.9799 96 41.0159 96 47.9839C96 54.9519 87.928 60.9839 73.86 64.5399L71.968 65.0199ZM70.004 47.9839C71.924 52.1399 73.512 56.2239 74.732 60.1679C85.432 57.1599 91.992 52.5639 91.992 47.9839C91.992 43.3999 85.428 38.8079 74.732 35.7999C73.4257 39.9608 71.8462 44.031 70.004 47.9839ZM21.24 35.7799L20.708 33.9119C16.752 19.9679 17.952 9.97594 24 6.48794C29.932 3.06394 39.456 7.10794 49.436 17.3519L50.796 18.7479L49.436 20.1439C45.8898 23.8304 42.6498 27.7995 39.748 32.0119L39.208 32.7839L38.268 32.8639C33.1636 33.2663 28.1003 34.0823 23.128 35.3039L21.24 35.7799ZM28.824 9.25994C27.752 9.25994 26.804 9.49194 26.004 9.95194C22.028 12.2439 21.324 20.2119 24.064 30.9639C28.3265 30.0157 32.6464 29.3462 36.996 28.9599C39.5057 25.3915 42.2476 21.9921 45.204 18.7839C38.964 12.7079 33.056 9.25994 28.824 9.25994ZM67.18 90.7079C67.176 90.7079 67.176 90.7079 67.18 90.7079C61.48 90.7079 54.16 86.4159 46.564 78.6159L45.204 77.2199L46.564 75.8239C50.1093 72.1363 53.348 68.1659 56.248 63.9519L56.788 63.1799L57.724 63.0999C62.831 62.6998 67.897 61.8851 72.872 60.6639L74.76 60.1879L75.296 62.0599C79.244 75.9959 78.048 85.9919 72 89.4759C70.5309 90.3066 68.8675 90.7318 67.18 90.7079ZM50.796 77.1839C57.036 83.2599 62.944 86.7079 67.176 86.7079H67.18C68.248 86.7079 69.2 86.4759 69.996 86.0159C73.972 83.7239 74.68 75.7519 71.936 64.9999C67.6723 65.9495 63.3511 66.619 59 67.0039C56.4933 70.5749 53.7527 73.9757 50.796 77.1839ZM74.76 35.7799L72.872 35.3039C67.8977 34.0788 62.8314 33.2628 57.724 32.8639L56.788 32.7839L56.248 32.0119C53.3495 27.7982 50.1106 23.8289 46.564 20.1439L45.204 18.7479L46.564 17.3519C56.54 7.11194 66.06 3.06794 72 6.48794C78.048 9.97594 79.248 19.9679 75.296 33.9079L74.76 35.7799ZM59 28.9599C63.568 29.3759 67.908 30.0519 71.936 30.9639C74.68 20.2119 73.972 12.2439 69.996 9.95194C66.044 7.66794 58.616 11.1679 50.796 18.7839C53.751 21.9923 56.4916 25.3916 59 28.9599ZM28.824 90.7079C27.1352 90.7325 25.4702 90.3073 24 89.4759C17.952 85.9919 16.752 75.9999 20.708 62.0599L21.236 60.1879L23.124 60.6639C27.744 61.8279 32.84 62.6479 38.264 63.0999L39.204 63.1799L39.74 63.9519C42.6422 68.1653 45.8822 72.1357 49.428 75.8239L50.788 77.2199L49.428 78.6159C41.836 86.4159 34.516 90.7079 28.824 90.7079ZM24.064 64.9999C21.32 75.7519 22.028 83.7239 26.004 86.0159C29.952 88.2679 37.376 84.7959 45.204 77.1839C42.2488 73.9733 39.5069 70.5727 36.996 67.0039C32.6462 66.6193 28.3262 65.9499 24.064 64.9999ZM48 67.5119C44.708 67.5119 41.324 67.3679 37.936 67.0879L36.996 67.0079L36.456 66.2359C34.5396 63.4823 32.7381 60.6506 31.056 57.7479C29.3789 54.843 27.8229 51.8698 26.392 48.8359L25.992 47.9839L26.392 47.1319C27.8227 44.098 29.3787 41.1248 31.056 38.2199C32.712 35.3559 34.532 32.4999 36.456 29.7319L36.996 28.9599L37.936 28.8799C44.6346 28.3119 51.3694 28.3119 58.068 28.8799L59.004 28.9599L59.54 29.7319C63.3767 35.2402 66.7445 41.0606 69.608 47.1319L70.012 47.9839L69.608 48.8359C66.7513 54.9109 63.3832 60.7318 59.54 66.2359L59.004 67.0079L58.068 67.0879C54.68 67.3679 51.292 67.5119 48 67.5119ZM39.212 63.1759C45.132 63.6199 50.868 63.6199 56.792 63.1759C60.0993 58.341 63.0357 53.2624 65.576 47.9839C63.0402 42.7023 60.1022 37.6233 56.788 32.7919C50.9377 32.3479 45.0623 32.3479 39.212 32.7919C35.8963 37.6224 32.9583 42.7015 30.424 47.9839C32.967 53.2618 35.9047 58.3402 39.212 63.1759Z" fill="#F2F2F2"/>
</svg>
