<svg width="36" height="36" viewBox="0 0 36 36" fill="none" xmlns="http://www.w3.org/2000/svg">
<g clip-path="url(#clip0_17_16)">
<path d="M1.12499 35.4375C0.95624 35.4375 0.84374 35.3813 0.73124 35.2687C0.56249 35.1 0.50624 34.875 0.61874 34.7062L3.14999 27.0562C1.46249 24.3562 0.56249 21.2062 0.56249 18C0.56249 8.38125 8.38124 0.5625 18 0.5625C27.6187 0.5625 35.4375 8.38125 35.4375 18C35.4375 27.6187 27.6187 35.4375 18 35.4375C14.7937 35.4375 11.6437 34.5375 8.94374 32.9062L1.29374 35.3813C1.23749 35.4375 1.18124 35.4375 1.12499 35.4375ZM8.99999 31.725C9.11249 31.725 9.22499 31.7812 9.28124 31.8375C11.8687 33.4688 14.9062 34.3687 18 34.3687C27 34.3687 34.3125 27.0562 34.3125 18.0562C34.3125 9.05625 27 1.6875 18 1.6875C8.99999 1.6875 1.68749 9 1.68749 18C1.68749 21.0938 2.58749 24.1313 4.21874 26.7188C4.33124 26.8875 4.33124 27.0562 4.27499 27.1687C4.27499 27.225 4.21874 27.2812 4.16249 27.3375L2.02499 33.975L8.83124 31.725C8.88749 31.725 8.94374 31.725 8.99999 31.725Z" fill="#D9D9D9"/>
<path d="M22.5 26.6063C20.9812 26.6063 19.0687 26.1 16.875 25.0875C13.8375 23.6813 11.3625 21.4875 9.73124 18.7313C8.77499 17.1563 8.26875 15.6938 8.2125 14.3438C8.2125 14.2875 7.93125 11.7 10.4062 9.7313C10.6875 9.5063 11.025 9.3938 11.4187 9.3938H12.4312C13.05 9.3938 13.6687 9.78755 13.8937 10.35L15.4125 14.0625C15.6375 14.625 15.525 15.3 15.1312 15.75L14.175 16.8188C14.0625 16.9875 14.0062 17.2125 14.1187 17.3813C14.175 17.4375 14.2312 17.6063 14.4562 17.8875C15.5812 19.35 17.1 20.5313 18.7875 21.2625C19.0687 21.375 19.2375 21.4313 19.35 21.4875C19.5187 21.5438 19.7437 21.4875 19.8562 21.3188L20.6437 20.1375C20.9812 19.6313 21.6 19.35 22.2187 19.4625L26.2125 20.0813C26.8312 20.1938 27.3375 20.6438 27.5062 21.2625L27.7312 22.275C27.8437 22.6125 27.7875 23.0063 27.6187 23.3438C26.2687 26.2688 23.7375 26.6063 23.625 26.6063C23.2875 26.55 22.8937 26.6063 22.5 26.6063ZM11.4187 10.5188C11.3062 10.5188 11.1937 10.575 11.1375 10.6313C9.11249 12.2625 9.3375 14.2875 9.3375 14.2875C9.39375 15.4688 9.84375 16.7625 10.6875 18.1688C12.2062 20.7 14.5125 22.7813 17.325 24.075C19.8562 25.2563 21.9375 25.7063 23.4562 25.425C23.5687 25.425 25.5375 25.0875 26.6062 22.7813C26.6625 22.6688 26.6625 22.5563 26.6062 22.5L26.4375 21.4875C26.3812 21.3188 26.2687 21.15 26.0437 21.15L22.05 20.5313C21.8812 20.5313 21.7125 20.5875 21.6 20.7563L20.8125 21.9375C20.4187 22.5 19.7437 22.7813 19.0687 22.6125C18.9 22.5563 18.675 22.5 18.3375 22.3313C16.4812 21.4875 14.7937 20.1938 13.5562 18.5625C13.3312 18.2813 13.2187 18.1125 13.1062 17.9438C12.7687 17.325 12.8812 16.5938 13.3312 16.0875L14.2875 15.0188C14.4 14.9063 14.4562 14.6813 14.4 14.5125L12.8812 10.8C12.825 10.6313 12.6562 10.5188 12.4312 10.5188H11.4187Z" fill="#D9D9D9"/>
</g>
<defs>
<clipPath id="clip0_17_16">
<rect width="36" height="36" fill="white"/>
</clipPath>
</defs>
</svg>
